<svg width="8" height="10" viewBox="0 0 8 10" fill="none" xmlns="http://www.w3.org/2000/svg">
<path d="M4 0.521484C2.10456 0.521484 0.5625 2.06355 0.5625 3.95898C0.5625 4.43362 0.947242 4.81836 1.42188 4.81836C1.89651 4.81836 2.28125 4.43362 2.28125 3.95898C2.28125 3.01127 3.05228 2.24023 4 2.24023C4.94772 2.24023 5.71875 3.01127 5.71875 3.95898C5.71875 4.9067 4.94772 5.67773 4 5.67773C3.52537 5.67773 3.14062 6.06248 3.14062 6.53711V8.68555C3.14062 9.16018 3.52537 9.54492 4 9.54492C4.47463 9.54492 4.85938 9.16018 4.85938 8.68555V7.28773C6.34034 6.90518 7.4375 5.55781 7.4375 3.95898C7.4375 2.06355 5.89544 0.521484 4 0.521484Z" fill="#84848D"/>
</svg>
