<svg width="22" height="18" viewBox="0 0 22 18" fill="none" xmlns="http://www.w3.org/2000/svg">
<path d="M21.1406 10.2084C21.6153 10.2084 22 9.82363 22 9.34899V4.35938C22 2.46394 20.4579 0.921875 18.5625 0.921875H3.4375C1.54206 0.921875 0 2.46394 0 4.35938V13.6406C0 15.5361 1.54206 17.0781 3.4375 17.0781H18.5625C20.4579 17.0781 22 15.5361 22 13.6406C22 13.166 21.6153 12.7812 21.1406 12.7812C20.666 12.7812 20.2812 13.166 20.2812 13.6406C20.2812 14.5883 19.5102 15.3594 18.5625 15.3594H3.4375C2.48978 15.3594 1.71875 14.5883 1.71875 13.6406V7.20055H20.2812V9.34899C20.2812 9.82363 20.666 10.2084 21.1406 10.2084ZM1.71875 5.4818V4.35938C1.71875 3.41166 2.48978 2.64062 3.4375 2.64062H18.5625C19.5102 2.64062 20.2812 3.41166 20.2812 4.35938V5.4818H1.71875Z" fill="#84848D"/>
</svg>
