<svg width="40" height="34" viewBox="0 0 40 34" fill="none" xmlns="http://www.w3.org/2000/svg">
<path d="M20.811 7.25271L11.7192 11.6877L18.9568 26.5246L28.0485 22.0896L20.811 7.25271Z" fill="#FF5F00"/>
<path d="M16.2757 18.6513C15.5776 17.2232 15.2139 15.6549 15.2119 14.0651C15.2099 12.4752 15.5698 10.9055 16.2644 9.47477C14.3376 9.06044 12.3328 9.19633 10.4789 9.8669C8.62508 10.5375 6.99704 11.7157 5.78086 13.2668C4.56469 14.818 3.80946 16.6796 3.60149 18.6388C3.39351 20.598 3.74118 22.5758 4.60476 24.3461C5.46834 26.1164 6.81299 27.6079 8.48503 28.65C10.1571 29.6921 12.089 30.2428 14.0601 30.2392C16.0312 30.2356 17.9619 29.6779 19.6315 28.6297C21.3012 27.5814 22.6424 26.0851 23.5019 24.3116C21.9463 23.9781 20.4873 23.2952 19.2353 22.3145C17.9834 21.3338 16.9713 20.0812 16.2757 18.6513Z" fill="#EB001B"/>
<path d="M37.1121 15.7249L36.9638 15.4209L37.0949 15.3569L37.0642 15.294L36.7521 15.4463L36.7828 15.5092L36.906 15.449L37.0544 15.7531L37.1121 15.7249ZM37.718 15.4293L37.539 15.0624L37.4446 15.1085L37.4623 15.4243L37.2242 15.216L37.1298 15.262L37.3088 15.629L37.377 15.5957L37.2415 15.3179L37.4601 15.5065L37.5309 15.4719L37.5169 15.1835L37.6524 15.4613L37.718 15.4293Z" fill="#F79E1B"/>
<path d="M35.1617 9.43765C36.0253 11.2081 36.3729 13.1861 36.1648 15.1454C35.9566 17.1047 35.2012 18.9664 33.9848 20.5175C32.7684 22.0687 31.14 23.2468 29.286 23.9171C27.4319 24.5875 25.4268 24.7231 23.5001 24.3083C24.1937 22.877 24.5532 21.3071 24.5514 19.7171C24.5496 18.1272 24.1865 16.5586 23.4895 15.1298C22.7925 13.701 21.7799 12.4493 20.5279 11.4691C19.276 10.4889 17.8175 9.80588 16.2625 9.47148C17.1218 7.69772 18.4628 6.20103 20.1324 5.1525C21.802 4.10397 23.7328 3.54591 25.704 3.54211C27.6753 3.53831 29.6074 4.08892 31.2797 5.131C32.9519 6.17308 34.2967 7.66459 35.1604 9.43503L35.1617 9.43765Z" fill="#FCCD43"/>
</svg>
