<svg width="35" height="105" viewBox="0 0 35 105" fill="none" xmlns="http://www.w3.org/2000/svg">
<path d="M0.918831 64.5859L33.6703 78.5915L33.5746 87.4373L7.24619 93.8039C6.62579 93.8598 6.03092 94.0746 5.52028 94.4269C5.00964 94.7792 4.60088 95.257 4.33434 95.813C3.03776 98.4412 2.06807 101.215 1.44642 104.073L0.49397 103.869L0.648579 89.5739C0.64846 88.6375 0.991688 87.733 1.61478 87.0274C2.23786 86.3219 3.09865 85.8631 4.03792 85.736L23.1153 82.3519L0.823439 73.4059L0.918831 64.5859ZM23.525 29.9593C14.8426 29.8654 14.2437 41.7151 10.3217 41.5952C9.14488 41.5825 7.90188 40.4325 7.61432 38.0013C7.363 35.1547 7.90022 32.2944 9.16849 29.7266L2.20185 28.1789C1.20747 30.6993 0.673772 33.3741 0.625578 36.0789C0.535773 44.3824 4.94392 50.3323 11.3511 50.4016C16.0846 50.4528 18.758 46.3101 20.3746 43.1504C21.9911 39.9908 23.0371 38.801 24.5145 38.8299C26.7244 38.8538 27.6641 41.447 27.6769 43.8881C27.7145 46.8972 26.9662 49.8649 25.5044 52.5049L32.6934 54.042C33.8954 51.0919 34.5196 47.9432 34.5331 44.763C34.6285 35.9429 30.2845 30.1099 23.446 30.0102L23.525 29.9593ZM34.4188 8.17299L34.5026 0.424782L1.54327 6.8488L1.46562 14.0288C1.47045 14.7835 1.69836 15.5204 2.12135 16.149C2.54435 16.7777 3.144 17.2707 3.84668 17.5675L34.1897 30.5655L34.2848 21.7712L29.3873 19.9618L29.5039 9.17888L34.4188 8.17299ZM22.6665 17.4481L10.3707 12.8853L22.7423 10.436L22.6665 17.4481ZM1.04872 52.5762L33.8727 59.8795L33.782 68.2605L0.957937 60.9701L1.04872 52.5762Z" fill="#DDE8EE"/>
</svg>
